<svg xmlns="http://www.w3.org/2000/svg" width="19" height="19" fill="none">
    <g clip-path="url(#clip0_0_3)" fill="#000">
        <path d="M4.779 4.586H3.186a.316.316 0 0 0-.317.316v1.596c0 .175.14.317.317.317h1.593a.316.316 0 0 0 .316-.317V4.902a.316.316 0 0 0-.316-.316ZM7.771 4.586H6.178a.317.317 0 0 0-.316.316v1.596c0 .175.141.317.316.317h1.593a.317.317 0 0 0 .317-.317V4.902a.317.317 0 0 0-.317-.316ZM10.767 4.586H9.17a.317.317 0 0 0-.317.316v1.596c0 .175.142.317.317.317h1.596a.317.317 0 0 0 .316-.317V4.902a.317.317 0 0 0-.316-.316ZM10.485 11.822h1.596c.174 0 .317-.14.317-.317V9.912a.316.316 0 0 0-.317-.317h-1.596a.316.316 0 0 0-.317.317v1.593c0 .177.143.317.317.317ZM15.073 9.595h-1.596a.317.317 0 0 0-.316.317v1.593c0 .175.141.317.316.317h1.596a.317.317 0 0 0 .317-.317V9.912a.317.317 0 0 0-.317-.317ZM10.485 15.172h1.596c.174 0 .317-.14.317-.317v-1.593a.316.316 0 0 0-.317-.316h-1.596a.316.316 0 0 0-.317.316v1.593c0 .178.143.317.317.317ZM15.073 12.946h-1.596a.317.317 0 0 0-.316.316v1.593c0 .175.141.317.316.317h1.596a.317.317 0 0 0 .317-.317v-1.593a.317.317 0 0 0-.317-.316ZM4.779 8.091H3.186a.314.314 0 0 0-.317.317v1.593c0 .174.14.317.317.317h1.593A.316.316 0 0 0 5.095 10V8.408a.314.314 0 0 0-.316-.317ZM7.771 8.091H6.178a.317.317 0 0 0-.316.317v1.593c0 .175.141.317.316.317h1.593A.317.317 0 0 0 8.088 10V8.408a.317.317 0 0 0-.317-.317Z"/>
        <path d="M18.683 16.714h-1.637V7.737a.318.318 0 0 0-.316-.317h-4.244V2.537a.905.905 0 0 0 .792-.893v-.538c0-.5-.405-.906-.906-.906H1.577a.908.908 0 0 0-.906.906v.538c0 .46.349.836.792.893v14.177H.317a.318.318 0 0 0-.317.317v1.466c0 .177.142.317.317.317h18.366c.175 0 .317-.14.317-.317v-1.466a.318.318 0 0 0-.317-.317ZM4.196 11.923a.316.316 0 0 0-.317.317v4.474H2.096V2.55h9.757v4.87H8.829a.318.318 0 0 0-.317.317v4.186H4.196Zm12.217-3.87v8.661H9.145v-8.66h7.268Z"/>
    </g>
</svg>
