<svg width="19" height="19" viewBox="0 0 19 19" fill="none" xmlns="http://www.w3.org/2000/svg">
<g clip-path="url(#clip0_0_3)">
<path d="M4.7785 4.58583H3.18567C3.00833 4.58583 2.869 4.72833 2.869 4.9025V6.4985C2.869 6.67267 3.00833 6.81517 3.18567 6.81517H4.7785C4.95583 6.81517 5.09517 6.67267 5.09517 6.4985V4.9025C5.09517 4.72833 4.95583 4.58583 4.7785 4.58583Z" fill="black"/>
<path d="M7.771 4.58583H6.17817C6.00328 4.58583 5.8615 4.72761 5.8615 4.9025V6.4985C5.8615 6.67339 6.00328 6.81517 6.17817 6.81517H7.771C7.94589 6.81517 8.08767 6.67339 8.08767 6.4985V4.9025C8.08767 4.72761 7.94589 4.58583 7.771 4.58583Z" fill="black"/>
<path d="M10.7667 4.58583H9.17067C8.99578 4.58583 8.854 4.72761 8.854 4.9025V6.4985C8.854 6.67339 8.99578 6.81517 9.17067 6.81517H10.7667C10.9416 6.81517 11.0833 6.67339 11.0833 6.4985V4.9025C11.0833 4.72761 10.9416 4.58583 10.7667 4.58583Z" fill="black"/>
<path d="M10.4848 11.8217H12.0808C12.255 11.8217 12.3975 11.6823 12.3975 11.505V9.91217C12.3975 9.73483 12.255 9.5955 12.0808 9.5955H10.4848C10.3107 9.5955 10.1682 9.73483 10.1682 9.91217V11.505C10.1682 11.6823 10.3107 11.8217 10.4848 11.8217Z" fill="black"/>
<path d="M15.0733 9.5955H13.4773C13.3024 9.5955 13.1607 9.73728 13.1607 9.91217V11.505C13.1607 11.6799 13.3024 11.8217 13.4773 11.8217H15.0733C15.2482 11.8217 15.39 11.6799 15.39 11.505V9.91217C15.39 9.73728 15.2482 9.5955 15.0733 9.5955Z" fill="black"/>
<path d="M10.4848 15.172H12.0808C12.255 15.172 12.3975 15.0327 12.3975 14.8553V13.2625C12.3975 13.0852 12.255 12.9458 12.0808 12.9458H10.4848C10.3107 12.9458 10.1682 13.0852 10.1682 13.2625V14.8553C10.1682 15.0327 10.3107 15.172 10.4848 15.172Z" fill="black"/>
<path d="M15.0733 12.9458H13.4773C13.3024 12.9458 13.1607 13.0876 13.1607 13.2625V14.8553C13.1607 15.0302 13.3024 15.172 13.4773 15.172H15.0733C15.2482 15.172 15.39 15.0302 15.39 14.8553V13.2625C15.39 13.0876 15.2482 12.9458 15.0733 12.9458Z" fill="black"/>
<path d="M4.7785 8.09134H3.18567C3.00833 8.09134 2.869 8.23067 2.869 8.408V10.0008C2.869 10.175 3.00833 10.3175 3.18567 10.3175H4.7785C4.95583 10.3175 5.09517 10.175 5.09517 10.0008V8.408C5.09517 8.23067 4.95583 8.09134 4.7785 8.09134Z" fill="black"/>
<path d="M7.771 8.09134H6.17817C6.00328 8.09134 5.8615 8.23311 5.8615 8.408V10.0008C5.8615 10.1757 6.00328 10.3175 6.17817 10.3175H7.771C7.94589 10.3175 8.08767 10.1757 8.08767 10.0008V8.408C8.08767 8.23311 7.94589 8.09134 7.771 8.09134Z" fill="black"/>
<path d="M18.6833 16.7142H17.0462V7.73667C17.0462 7.5625 16.9037 7.42 16.7295 7.42H12.4862V2.537C12.9295 2.48 13.2778 2.10317 13.2778 1.644V1.10567C13.2778 0.605333 12.8725 0.2 12.3722 0.2H1.577C1.07983 0.2 0.671333 0.605333 0.671333 1.10567V1.644C0.671333 2.10317 1.01967 2.48 1.463 2.537V16.7142H0.316667C0.1425 16.7142 0 16.8567 0 17.0308V18.497C0 18.6743 0.1425 18.8137 0.316667 18.8137H18.6833C18.8575 18.8137 19 18.6743 19 18.497V17.0308C19 16.8567 18.8575 16.7142 18.6833 16.7142ZM4.19583 11.923C4.0185 11.923 3.87917 12.0655 3.87917 12.2397V16.7142H2.09633V2.54967H11.8528V7.42H8.82867C8.6545 7.42 8.512 7.5625 8.512 7.73667V11.923H4.19583ZM16.4128 8.05333V16.7142H9.14533V8.05333H16.4128Z" fill="black"/>
</g>
<defs>
<clipPath id="clip0_0_3">
<rect width="19" height="19" fill="white"/>
</clipPath>
</defs>
</svg>
