<svg width="19" height="20" viewBox="0 0 19 20" fill="none" xmlns="http://www.w3.org/2000/svg">
<g clip-path="url(#clip0_0_10)">
<path fill-rule="evenodd" clip-rule="evenodd" d="M9.5 0.85C14.7617 0.85 19 4.7313 19 9.46628C19 14.2013 14.7617 18.0826 9.5 18.0826C8.26456 18.0826 7.08391 17.8678 6.00223 17.479L3.16816 18.8964C2.94809 19.006 2.68565 18.9857 2.48506 18.8417C2.28534 18.6985 2.18192 18.4555 2.21551 18.2115L2.60965 15.3969C0.988866 13.8487 0 11.7596 0 9.46628C0 4.7313 4.23833 0.85 9.5 0.85ZM5.42251 12.2694L7.70695 10.4923C7.98974 10.2723 8.37767 10.2449 8.68788 10.4225L10.5516 11.4874C10.9546 11.718 11.4672 11.5969 11.7252 11.2099L14.1961 7.50445C14.2633 7.40194 14.2527 7.26762 14.1705 7.17748C14.0874 7.08734 13.9531 7.06613 13.8461 7.12532L11.2966 8.54191C11.0076 8.70274 10.6523 8.6877 10.3775 8.50479L8.92201 7.53446C8.72496 7.40281 8.48369 7.35595 8.25125 7.40454C8.01972 7.45316 7.81646 7.59279 7.68834 7.79161L5.03717 11.9168C4.96738 12.0255 4.98592 12.1687 5.08136 12.2562C5.17597 12.3428 5.3209 12.349 5.42251 12.2694Z" fill="black"/>
</g>
<defs>
<clipPath id="clip0_0_10">
<rect width="19" height="19" fill="white" transform="translate(0 0.4)"/>
</clipPath>
</defs>
</svg>
