<?xml version="1.0" encoding="UTF-8"?>
<svg version="1.1" xmlns="http://www.w3.org/2000/svg" width="300" height="200">
<path d="M0 0 C99 0 198 0 300 0 C300 66 300 132 300 200 C201 200 102 200 0 200 C0 134 0 68 0 0 Z " fill="#00880A" transform="translate(0,0)"/>
<path d="M0 0 C4 1 4 1 5.75 3.5625 C6.1625 4.366875 6.575 5.17125 7 6 C7.33 4.02 7.66 2.04 8 0 C8.99 0 9.98 0 11 0 C11 4.29 11 8.58 11 13 C10.01 13 9.02 13 8 13 C5.8125 10 5.8125 10 4 7 C3.67 8.98 3.34 10.96 3 13 C2.01 13 1.02 13 0 13 C0 8.71 0 4.42 0 0 Z " fill="#E9F4EA" transform="translate(93,87)"/>
<path d="M0 0 C1.670625 0.061875 1.670625 0.061875 3.375 0.125 C4.035 1.445 4.695 2.765 5.375 4.125 C4.240625 3.939375 3.10625 3.75375 1.9375 3.5625 C0.761875 3.418125 -0.41375 3.27375 -1.625 3.125 C-2.92133621 4.19145115 -2.92133621 4.19145115 -2.6875 6.6875 C-2.666875 7.491875 -2.64625 8.29625 -2.625 9.125 C-1.305 9.455 0.015 9.785 1.375 10.125 C1.705 9.465 2.035 8.805 2.375 8.125 C1.715 8.125 1.055 8.125 0.375 8.125 C0.375 7.465 0.375 6.805 0.375 6.125 C2.025 6.125 3.675 6.125 5.375 6.125 C5 9.0625 5 9.0625 4.375 12.125 C1.54616253 13.53941874 -0.49876745 13.44400332 -3.625 13.125 C-5.5625 11.5625 -5.5625 11.5625 -6.625 9.125 C-6.16401132 0.21255211 -6.16401132 0.21255211 0 0 Z " fill="#ECF6ED" transform="translate(206.625,86.875)"/>
<path d="M0 0 C2.5 0.25 2.5 0.25 4.5 2.25 C4.625 5.875 4.625 5.875 4.5 9.25 C1.125 9.875 1.125 9.875 -2.5 10.25 C-4.5 8.25 -4.5 8.25 -4.75 5.25 C-4.43608753 1.48305032 -3.83691092 0.38369109 0 0 Z " fill="#E0F0E1" transform="translate(110.5,89.75)"/>
<path d="M0 0 C2.5 0.25 2.5 0.25 4.5 2.25 C4.75 5.25 4.75 5.25 4.5 8.25 C2.5 10.25 2.5 10.25 0 10.5 C-2.5 10.25 -2.5 10.25 -4.5 8.25 C-4.75 5.25 -4.75 5.25 -4.5 2.25 C-2.5 0.25 -2.5 0.25 0 0 Z " fill="#E5F3E6" transform="translate(178.5,89.75)"/>
<path d="M0 0 C2.97 0 5.94 0 9 0 C9 0.66 9 1.32 9 2 C7.02 2 5.04 2 3 2 C3.33 2.66 3.66 3.32 4 4 C5.32303717 4.3721042 6.65737935 4.70630173 8 5 C9 6 9 6 9.1875 8.4375 C9 11 9 11 7 13 C3.375 12.625 3.375 12.625 0 12 C0 11.01 0 10.02 0 9 C1.98 9.66 3.96 10.32 6 11 C6 9.68 6 8.36 6 7 C4.02 7 2.04 7 0 7 C0 4.69 0 2.38 0 0 Z " fill="#E4F2E5" transform="translate(138,109)"/>
<path d="M0 0 C3.29714793 0.32971479 4.6226839 0.6226839 7 3 C7 3.99 7 4.98 7 6 C6.01 6.33 5.02 6.66 4 7 C4.66 7 5.32 7 6 7 C5.67 7.99 5.34 8.98 5 10 C2.125 10.1875 2.125 10.1875 -1 10 C-3 7 -3 7 -2.75 4.4375 C-2 2 -2 2 0 0 Z " fill="#BCE0BF" transform="translate(234,90)"/>
<path d="M0 0 C0.66 0.66 1.32 1.32 2 2 C1.5625 4.0625 1.5625 4.0625 1 6 C1.33 6.33 1.66 6.66 2 7 C2.04063832 8.66617115 2.042721 10.33388095 2 12 C-0.70879335 13.35439668 -3.00933268 13.06501451 -6 13 C-6.33 11.68 -6.66 10.36 -7 9 C-4.03 9.495 -4.03 9.495 -1 10 C-1 9.34 -1 8.68 -1 8 C-1.99 7.67 -2.98 7.34 -4 7 C-4 6.34 -4 5.68 -4 5 C-3.01 5 -2.02 5 -1 5 C-1 4.01 -1 3.02 -1 2 C-1.99 2 -2.98 2 -4 2 C-4 2.66 -4 3.32 -4 4 C-4.99 4 -5.98 4 -7 4 C-7 3.01 -7 2.02 -7 1 C-4.48718205 -0.25640898 -2.78302919 -0.20872719 0 0 Z " fill="#E7F3E7" transform="translate(162,109)"/>
<path d="M0 0 C3.125 0.375 3.125 0.375 6 1 C6.33 2.65 6.66 4.3 7 6 C6.01 6.33 5.02 6.66 4 7 C4.99 7.33 5.98 7.66 7 8 C5 10 5 10 2.5 10.25 C0 10 0 10 -2 8 C-2.25 5 -2.25 5 -2 2 C-1.34 1.34 -0.68 0.68 0 0 Z " fill="#D3EAD4" transform="translate(223,90)"/>
<path d="M0 0 C2.64 0 5.28 0 8 0 C9.60725635 3.21451269 9.05748185 6.43612536 9 10 C8.01 10 7.02 10 6 10 C6 7.69 6 5.38 6 3 C5.01 3 4.02 3 3 3 C3 5.31 3 7.62 3 10 C2.01 10 1.02 10 0 10 C0 6.7 0 3.4 0 0 Z " fill="#D8ECD9" transform="translate(185,90)"/>
<path d="M0 0 C2.375 -0.125 2.375 -0.125 5 0 C7 2 7 2 7.1953125 3.9453125 C7.13020833 5.96354167 7.06510417 7.98177083 7 10 C4.36 10 1.72 10 -1 10 C-1.33 8.68 -1.66 7.36 -2 6 C-0.68 5.67 0.64 5.34 2 5 C1.67 5.99 1.34 6.98 1 8 C2.32 8 3.64 8 5 8 C5 7.01 5 6.02 5 5 C4.34 4.67 3.68 4.34 3 4 C3.33 3.34 3.66 2.68 4 2 C2.35 2.33 0.7 2.66 -1 3 C-0.67 2.01 -0.34 1.02 0 0 Z " fill="#EEF7EE" transform="translate(153,90)"/>
<path d="M0 0 C2.375 -0.1875 2.375 -0.1875 5 0 C5.66 0.99 6.32 1.98 7 3 C5.35 2.67 3.7 2.34 2 2 C2 2.66 2 3.32 2 4 C3.65 4.33 5.3 4.66 7 5 C6.67 6.65 6.34 8.3 6 10 C4.02 10 2.04 10 0 10 C-0.33 9.01 -0.66 8.02 -1 7 C1.475 7.495 1.475 7.495 4 8 C4 7.34 4 6.68 4 6 C2.35 5.67 0.7 5.34 -1 5 C-0.67 3.35 -0.34 1.7 0 0 Z " fill="#E4F2E5" transform="translate(73,90)"/>
<path d="M0 0 C3.375 -0.125 3.375 -0.125 7 0 C9 2 9 2 9.1953125 3.9453125 C9.13020833 5.96354167 9.06510417 7.98177083 9 10 C8.01 10 7.02 10 6 10 C5.67 7.69 5.34 5.38 5 3 C4.34 3 3.68 3 3 3 C2.67 5.31 2.34 7.62 2 10 C1.34 10 0.68 10 0 10 C0 6.7 0 3.4 0 0 Z " fill="#E7F4E8" transform="translate(243,90)"/>
<path d="M0 0 C0.78375 0.04125 1.5675 0.0825 2.375 0.125 C3.035 1.445 3.695 2.765 4.375 4.125 C3.385 4.125 2.395 4.125 1.375 4.125 C1.375 3.465 1.375 2.805 1.375 2.125 C0.385 2.62 0.385 2.62 -0.625 3.125 C-1.28055119 5.65233235 -1.28055119 5.65233235 -1.625 8.125 C-0.635 8.125 0.355 8.125 1.375 8.125 C1.375 7.465 1.375 6.805 1.375 6.125 C2.365 6.125 3.355 6.125 4.375 6.125 C3.715 7.445 3.055 8.765 2.375 10.125 C0 10.25 0 10.25 -2.625 10.125 C-4.625 8.125 -4.625 8.125 -4.875 5.125 C-4.55416156 1.2749387 -3.94115238 0.18767392 0 0 Z " fill="#EBF5EC" transform="translate(145.625,89.875)"/>
<path d="M0 0 C3.63 0 7.26 0 11 0 C11 0.66 11 1.32 11 2 C9.68 2 8.36 2 7 2 C7 5.63 7 9.26 7 13 C6.01 13 5.02 13 4 13 C4 9.37 4 5.74 4 2 C2.68 2 1.36 2 0 2 C0 1.34 0 0.68 0 0 Z " fill="#F0F7F0" transform="translate(50,87)"/>
<path d="M0 0 C0.66 0 1.32 0 2 0 C2 0.66 2 1.32 2 2 C2.721875 1.67 3.44375 1.34 4.1875 1 C7.01697427 -0.00603529 9.02895466 -0.16977402 12 0 C12.33 1.98 12.66 3.96 13 6 C11.68 6 10.36 6 9 6 C9 5.34 9 4.68 9 4 C8.1028125 4.2784375 8.1028125 4.2784375 7.1875 4.5625 C5 5 5 5 2 4 C2 4.66 2 5.32 2 6 C1.01 6 0.02 6 -1 6 C-1.042721 4.33388095 -1.04063832 2.66617115 -1 1 C-0.67 0.67 -0.34 0.34 0 0 Z " fill="#2A9C31" transform="translate(145,92)"/>
<path d="M0 0 C3.125 0.375 3.125 0.375 6 1 C6.33 2.32 6.66 3.64 7 5 C6.34 5 5.68 5 5 5 C4.67 4.34 4.34 3.68 4 3 C3.01 3 2.02 3 1 3 C1.99 3.66 2.98 4.32 4 5 C3.01 5 2.02 5 1 5 C1 5.99 1 6.98 1 8 C2.98 7.67 4.96 7.34 7 7 C6.01 8.485 6.01 8.485 5 10 C2.5 10.3125 2.5 10.3125 0 10 C-2 8 -2 8 -2.25 5 C-2 2 -2 2 0 0 Z " fill="#EEF7EE" transform="translate(63,90)"/>
<path d="M0 0 C1.32 0 2.64 0 4 0 C3.34 4.62 2.68 9.24 2 14 C1.01 14 0.02 14 -1 14 C-1.22331199 12.41870971 -1.42804644 10.83478911 -1.625 9.25 C-1.74101562 8.36828125 -1.85703125 7.4865625 -1.9765625 6.578125 C-2.00207817 3.77140122 -1.44843844 2.36615134 0 0 Z " fill="#DAEDDB" transform="translate(131,86)"/>
<path d="M0 0 C3.01305957 0.38878188 4.39685311 1.26456874 7 3 C5.35 3.33 3.7 3.66 2 4 C2 4.66 2 5.32 2 6 C2.66 6 3.32 6 4 6 C3.67 6.99 3.34 7.98 3 9 C-0.875 8.125 -0.875 8.125 -2 7 C-2.1875 4.5625 -2.1875 4.5625 -2 2 C-1.34 1.34 -0.68 0.68 0 0 Z " fill="#199321" transform="translate(205,89)"/>
<path d="M0 0 C0.99 0 1.98 0 3 0 C3 0.66 3 1.32 3 2 C3.66 2 4.32 2 5 2 C5 2.66 5 3.32 5 4 C4.34 4 3.68 4 3 4 C3 5.98 3 7.96 3 10 C3.66 10 4.32 10 5 10 C5 10.66 5 11.32 5 12 C3.35 11.67 1.7 11.34 0 11 C-0.19491452 9.54263913 -0.38069358 8.08405407 -0.5625 6.625 C-0.66691406 5.81289062 -0.77132812 5.00078125 -0.87890625 4.1640625 C-1 2 -1 2 0 0 Z " fill="#E6F3E7" transform="translate(118,88)"/>
<path d="M0 0 C0.99 0 1.98 0 3 0 C4.3271261 3.9813783 4.06915913 7.85045227 4 12 C2.68 11.67 1.36 11.34 0 11 C0 8.69 0 6.38 0 4 C-0.66 4 -1.32 4 -2 4 C-2 3.34 -2 2.68 -2 2 C-1.34 2 -0.68 2 0 2 C0 1.34 0 0.68 0 0 Z " fill="#E1F0E1" transform="translate(163,88)"/>
<path d="M0 0 C2.0625 0.4375 2.0625 0.4375 4 1 C4 1.66 4 2.32 4 3 C6.97 3.33 9.94 3.66 13 4 C13 4.66 13 5.32 13 6 C11.35 5.67 9.7 5.34 8 5 C7.67 5.66 7.34 6.32 7 7 C6.401875 6.835 5.80375 6.67 5.1875 6.5 C2.88655664 5.8885876 2.88655664 5.8885876 0 6 C-0.38218767 4.34385343 -0.71395102 2.67542976 -1 1 C-0.67 0.67 -0.34 0.34 0 0 Z " fill="#38A240" transform="translate(64,92)"/>
<path d="M0 0 C1.98 0 3.96 0 6 0 C6 0.66 6 1.32 6 2 C5.01 2.495 5.01 2.495 4 3 C3.59270772 5.32156597 3.25561323 7.6568787 3 10 C2.01 10 1.02 10 0 10 C0 6.7 0 3.4 0 0 Z " fill="#E7F4E8" transform="translate(214,90)"/>
<path d="M0 0 C0.66 0 1.32 0 2 0 C2 0.66 2 1.32 2 2 C2.66 2 3.32 2 4 2 C4 2.66 4 3.32 4 4 C3.34 4 2.68 4 2 4 C2 5.98 2 7.96 2 10 C2.66 10 3.32 10 4 10 C4 10.66 4 11.32 4 12 C2.68 12 1.36 12 0 12 C0 9.36 0 6.72 0 4 C-0.66 4 -1.32 4 -2 4 C-2 3.34 -2 2.68 -2 2 C-1.34 2 -0.68 2 0 2 C0 1.34 0 0.68 0 0 Z " fill="#F5FAF5" transform="translate(83,88)"/>
<path d="M0 0 C0.99 0 1.98 0 3 0 C3 3.3 3 6.6 3 10 C2.01 10 1.02 10 0 10 C0 6.7 0 3.4 0 0 Z " fill="#E6F3E7" transform="translate(169,90)"/>
<path d="M0 0 C0.99 0 1.98 0 3 0 C3 3.3 3 6.6 3 10 C2.01 10 1.02 10 0 10 C0 6.7 0 3.4 0 0 Z " fill="#DCEEDD" transform="translate(136,90)"/>
<path d="M0 0 C0.99 0 1.98 0 3 0 C3 3.3 3 6.6 3 10 C2.01 10 1.02 10 0 10 C0 6.7 0 3.4 0 0 Z " fill="#DCEEDD" transform="translate(124,90)"/>
<path d="M0 0 C2.31 0 4.62 0 7 0 C7.66 1.32 8.32 2.64 9 4 C7.39125 3.7215625 7.39125 3.7215625 5.75 3.4375 C2.59608454 3.0695432 0.90181508 2.95534657 -2 4 C-1.34 2.68 -0.68 1.36 0 0 Z " fill="#E3F2E4" transform="translate(203,87)"/>
<path d="M0 0 C0.66 0 1.32 0 2 0 C3.60725635 3.21451269 3.05748185 6.43612536 3 10 C2.01 10 1.02 10 0 10 C0 6.7 0 3.4 0 0 Z " fill="#EDF6EE" transform="translate(185,90)"/>
<path d="M0 0 C0.78375 0.04125 1.5675 0.0825 2.375 0.125 C3.035 1.445 3.695 2.765 4.375 4.125 C3.385 4.125 2.395 4.125 1.375 4.125 C1.375 3.465 1.375 2.805 1.375 2.125 C-1.13583114 3.38041557 -1.49625446 4.62563488 -2.625 7.125 C-3.285 5.475 -3.945 3.825 -4.625 2.125 C-2.625 0.125 -2.625 0.125 0 0 Z " fill="#CDE8CF" transform="translate(145.625,89.875)"/>
<path d="M0 0 C1.1446875 0.2784375 1.1446875 0.2784375 2.3125 0.5625 C5.08967375 1.22819173 5.08967375 1.22819173 8 0 C8 2.31 8 4.62 8 7 C7.01 6.67 6.02 6.34 5 6 C5 5.01 5 4.02 5 3 C3.35 2.67 1.7 2.34 0 2 C0 1.34 0 0.68 0 0 Z " fill="#289A2F" transform="translate(75,92)"/>
<path d="M0 0 C0.66 0.33 1.32 0.66 2 1 C2 3.64 2 6.28 2 9 C1.01 9.495 1.01 9.495 0 10 C-1.36952673 7.26094655 -1.12621361 5.02912668 -1 2 C-0.67 1.34 -0.34 0.68 0 0 Z " fill="#119019" transform="translate(167,90)"/>
<path d="M0 0 C1.66611905 -0.042721 3.33382885 -0.04063832 5 0 C6 1 6 1 6.0625 4.5625 C6.041875 5.696875 6.02125 6.83125 6 8 C5.01 8.33 4.02 8.66 3 9 C3.0928125 7.329375 3.0928125 7.329375 3.1875 5.625 C3.125625 4.42875 3.06375 3.2325 3 2 C2.01 1.34 1.02 0.68 0 0 Z " fill="#F5FAF6" transform="translate(109,91)"/>
<path d="M0 0 C1.98 0.495 1.98 0.495 4 1 C3.01 1 2.02 1 1 1 C1 1.99 1 2.98 1 4 C2.98 3.67 4.96 3.34 7 3 C6.01 4.485 6.01 4.485 5 6 C2.375 6.1875 2.375 6.1875 0 6 C-1.24546405 3.50907189 -0.7767578 2.58919267 0 0 Z " fill="#E6F3E6" transform="translate(63,94)"/>
<path d="M0 0 C2.97 0.33 5.94 0.66 9 1 C8.01 2.485 8.01 2.485 7 4 C4.69 3.67 2.38 3.34 0 3 C0 2.01 0 1.02 0 0 Z " fill="#E9F5EA" transform="translate(138,118)"/>
<path d="M0 0 C0.99 0.33 1.98 0.66 3 1 C2.67 1.66 2.34 2.32 2 3 C3.32 3.33 4.64 3.66 6 4 C6 4.33 6 4.66 6 5 C4.02 5 2.04 5 0 5 C-0.5625 3.0625 -0.5625 3.0625 -1 1 C-0.67 0.67 -0.34 0.34 0 0 Z " fill="#DCEEDD" transform="translate(152,95)"/>
<path d="M0 0 C0.99 0.33 1.98 0.66 3 1 C2.67 2.65 2.34 4.3 2 6 C1.01 6 0.02 6 -1 6 C-1.042721 4.33388095 -1.04063832 2.66617115 -1 1 C-0.67 0.67 -0.34 0.34 0 0 Z " fill="#1D9525" transform="translate(110,92)"/>
<path d="M0 0 C1.98 0.495 1.98 0.495 4 1 C4.33 2.65 4.66 4.3 5 6 C4.01 6 3.02 6 2 6 C2 5.01 2 4.02 2 3 C1.01 2.67 0.02 2.34 -1 2 C-0.67 1.34 -0.34 0.68 0 0 Z " fill="#C2E2C4" transform="translate(142,113)"/>
<path d="M0 0 C1.65 0.33 3.3 0.66 5 1 C5.33 2.32 5.66 3.64 6 5 C5.34 5 4.68 5 4 5 C4 4.01 4 3.02 4 2 C2.02 2.66 0.04 3.32 -2 4 C-1.34 2.68 -0.68 1.36 0 0 Z " fill="#F2F8F2" transform="translate(234,90)"/>
<path d="M0 0 C0 2.64 0 5.28 0 8 C-0.99 7.67 -1.98 7.34 -3 7 C-3 5.02 -3 3.04 -3 1 C-1 0 -1 0 0 0 Z " fill="#088B10" transform="translate(124,91)"/>
<path d="M0 0 C0.99 0 1.98 0 3 0 C3 1.98 3 3.96 3 6 C2.01 6 1.02 6 0 6 C0 4.02 0 2.04 0 0 Z " fill="#15911D" transform="translate(177,92)"/>
</svg>
