<svg width="159" height="313" viewBox="0 0 159 313" fill="none" xmlns="http://www.w3.org/2000/svg">
<path fill-rule="evenodd" clip-rule="evenodd" d="M0 215.572V94.3125L159 250.602L141.226 267.634C137.822 265.385 133.742 264.075 129.356 264.075C117.449 264.075 107.797 273.727 107.797 285.632C107.797 289.689 108.918 293.485 110.866 296.725L94.322 312.579L0 215.572Z" fill="#FFC351"/>
<path fill-rule="evenodd" clip-rule="evenodd" d="M0 91.618V215.572L156.305 61.9769L138.531 44.945C135.127 47.1942 131.047 48.5037 126.661 48.5037C114.754 48.5037 105.102 38.8522 105.102 26.9465C105.102 22.8895 106.222 19.0942 108.171 15.8534L91.6271 0L0 91.618Z" fill="#DF135C"/>
</svg>
